<svg data-v-1e121de1="" version="1.0" xmlns="http://www.w3.org/2000/svg" xmlns:xlink="http://www.w3.org/1999/xlink" width="100%" height="100%" viewBox="0 0 340.000000 250.000000" preserveAspectRatio="xMidYMid meet" color-interpolation-filters="sRGB" class="el-tooltip" style="margin: auto;"><rect data-v-1e121de1="" x="0" y="0" width="100%" height="100%" fill="#fff" fill-opacity="1" class="background"></rect> <rect data-v-1e121de1="" x="0" y="0" width="100%" height="100%" fill="url(#watermark)" fill-opacity="1" class="watermarklayer"></rect> <g data-v-1e121de1="" fill="#333" class="icon-text-wrapper icon-svg-group iconsvg" transform="translate(65.4000015258789,93.32487297058105)"><g class="iconsvg-imagesvg" transform="translate(0,0)"><rect fill="#333" fill-opacity="0" stroke-width="2" x="0" y="0" width="60" height="63.3502538071066" class="image-rect"></rect> <svg x="0" y="0" width="60" height="63.3502538071066" filtersec="colorsb8860429819" class="image-svg-svg primary"><svg xmlns="http://www.w3.org/2000/svg" viewBox="0 0 183.21 193.44"><path d="M28.56 89.47l19.48-12.23.06-41.14 42.55 25.63 43.37-24.86v41l19.35 11.77.21-89.63c-36 21.82-36.45 22-62.88 38.63C65 22.71 64.98 22.69 28.41.15zM0 109.7l90.87 83.74c28.48-24.61 60.91-54.89 92.34-83l-16-11.37-76.6 66.16L16.05 99.1z" fill="#ffa200"></path><path d="M76.61 125.93c-10.35-34.55-23.54-24.46-23-21.29 0 .18 6.22 6.92 7.05 7.68 4.51 4.12 11.46 10.59 15.95 13.61zm29.57 0c10.36-34.54 23.54-24.45 23-21.28 0 .17-6.22 6.92-7 7.68-4.49 4.12-11.43 10.59-15.93 13.6z" fill="#ffa200"></path></svg></svg> <!----></g> <g transform="translate(67,12.770126342773438)"><g fill-rule="" class="tp-name iconsvg-namesvg"><g><path d="M0.72-21.91L4.54-21.91L4.54-30.02L10.57-30.02L10.57-21.91L16.16-21.91L16.16-17.23L10.57-17.23L10.57-9.27Q10.57-6.48 11.07-5.76L11.07-5.76Q11.83-4.68 13.77-4.68L13.77-4.68L16.16-4.68L16.16 0L11.79 0Q7.88 0 6.21-1.89Q4.54-3.78 4.54-8.23L4.54-8.23L4.54-17.23L0.72-17.23L0.72-21.91ZM25.47-13.32L38.16-13.32L38.16-8.64L25.47-8.64Q25.65-6.48 26.86-5.58Q28.08-4.68 30.82-4.68L30.82-4.68L38.16-4.68L38.16 0L30.15 0Q27.54 0 25.90-0.47Q24.25-0.94 22.81-2.02L22.81-2.02Q18.81-5.13 18.81-11.25L18.81-11.25Q18.81-15.21 20.92-18.18L20.92-18.18Q22.36-20.20 24.39-21.06Q26.41-21.91 29.70-21.91L29.70-21.91L38.16-21.91L38.16-17.23L30.15-17.23Q27.67-17.23 26.68-16.40Q25.70-15.57 25.47-13.32L25.47-13.32ZM52.83-21.91L64.08-21.91L64.08-0.14Q64.08 1.71 63.65 3.15Q63.23 4.59 62.41 5.58L62.41 5.58Q61.38 6.84 59.92 7.31Q58.45 7.79 55.66 7.79L55.66 7.79L43.65 7.79L43.65 3.10L54.86 3.10Q56.84 3.10 57.44 2.50Q58.05 1.89 58.05 0L58.05 0L52.52 0Q49.86 0 48.13-0.56Q46.40-1.13 45-2.43L45-2.43Q41.72-5.54 41.72-10.98L41.72-10.98Q41.72-17.19 45.72-20.02L45.72-20.02Q47.16-21.06 48.76-21.49Q50.36-21.91 52.83-21.91L52.83-21.91ZM58.05-4.68L58.05-17.23L53.05-17.23Q47.84-17.23 47.84-10.93L47.84-10.93Q47.84-7.88 49.25-6.28Q50.67-4.68 53.37-4.68L53.37-4.68L58.05-4.68ZM78.61-4.68L84.28-4.68L84.28-21.91L90.31-21.91L90.31 0L78.44 0Q75.87 0 74.47-0.38Q73.08-0.77 72-1.75L72-1.75Q69.70-3.82 69.70-8.46L69.70-8.46L69.70-21.91L75.69-21.91L75.69-7.83Q75.69-6.34 76.48-5.51Q77.27-4.68 78.61-4.68L78.61-4.68ZM96.21 0L96.21-21.91L107.82-21.91Q110.43-21.91 111.80-21.53Q113.17-21.15 114.30-20.16L114.30-20.16Q116.59-18.04 116.59-13.50L116.59-13.50L116.59 0L110.56 0L110.56-14.17Q110.56-15.79 109.84-16.52Q109.13-17.23 107.46-17.23L107.46-17.23L102.24-17.23L102.24 0L96.21 0ZM131.26-21.91L136.94-21.91L136.94-30.02L142.92-30.02L142.92 0L132.57 0Q129.42 0 127.80-0.49L127.80-0.49Q123.97-1.71 122.08-5.26L122.08-5.26Q120.78-7.65 120.78-11.12L120.78-11.12Q120.78-16.74 124.56-19.84L124.56-19.84Q127.03-21.91 131.26-21.91L131.26-21.91ZM132.57-4.68L136.94-4.68L136.94-17.23L132.57-17.23Q129.69-17.23 128.20-15.30L128.20-15.30Q126.90-13.68 126.90-11.12L126.90-11.12Q126.90-7.38 129.06-5.76L129.06-5.76Q130.54-4.68 132.57-4.68L132.57-4.68Z" transform="translate(-0.72, 30.015)"></path></g> <!----> <!----> <!----> <!----> <!----> <!----> <!----></g> <!----></g></g></svg>